<svg width="1280" height="820" viewBox="0 0 1280 820" fill="none" xmlns="http://www.w3.org/2000/svg">
  <defs>
    <linearGradient id="bg2" x1="250" y1="80" x2="1070" y2="760" gradientUnits="userSpaceOnUse">
      <stop stop-color="#FFFFFF"/>
      <stop offset="0.45" stop-color="#F8FAFC"/>
      <stop offset="1" stop-color="#ECFEFF"/>
    </linearGradient>
    <filter id="shadow2" x="90" y="70" width="1100" height="660" filterUnits="userSpaceOnUse">
      <feDropShadow dx="0" dy="26" stdDeviation="28" flood-color="#0891B2" flood-opacity="0.12"/>
    </filter>
  </defs>

  <rect width="1280" height="820" fill="url(#bg2)"/>
  <circle cx="1080" cy="120" r="120" fill="#CFFAFE" fill-opacity="0.6"/>
  <circle cx="180" cy="710" r="120" fill="#FEF3C7" fill-opacity="0.45"/>

  <g filter="url(#shadow2)">
    <rect x="120" y="110" width="1040" height="610" rx="30" fill="#FFFFFF" fill-opacity="0.95"/>
  </g>

  <rect x="160" y="150" width="960" height="110" rx="24" fill="#FFFFFF" stroke="#CFFAFE"/>
  <text x="190" y="188" fill="#0E7490" font-family="Arial, sans-serif" font-size="15" font-weight="700" letter-spacing="4">LIVE STATS</text>
  <text x="190" y="228" fill="#0F172A" font-family="Georgia, serif" font-size="34" font-weight="700">Signals recruiters can actually inspect.</text>
  <text x="190" y="255" fill="#475569" font-family="Arial, sans-serif" font-size="16">Usage, performance, and feedback metrics for the chat experience.</text>

  <rect x="160" y="295" width="225" height="120" rx="22" fill="#FFFBEB" stroke="#FDE68A"/>
  <text x="188" y="326" fill="#64748B" font-family="Arial, sans-serif" font-size="12" font-weight="700" letter-spacing="3">TOTAL CHATS</text>
  <text x="188" y="382" fill="#0F172A" font-family="Arial, sans-serif" font-size="40" font-weight="700">48</text>

  <rect x="405" y="295" width="225" height="120" rx="22" fill="#ECFEFF" stroke="#A5F3FC"/>
  <text x="433" y="326" fill="#64748B" font-family="Arial, sans-serif" font-size="12" font-weight="700" letter-spacing="3">AVG LATENCY</text>
  <text x="433" y="382" fill="#0F172A" font-family="Arial, sans-serif" font-size="40" font-weight="700">842 ms</text>

  <rect x="650" y="295" width="225" height="120" rx="22" fill="#ECFDF5" stroke="#A7F3D0"/>
  <text x="678" y="326" fill="#64748B" font-family="Arial, sans-serif" font-size="12" font-weight="700" letter-spacing="3">POSITIVE FEEDBACK</text>
  <text x="678" y="382" fill="#0F172A" font-family="Arial, sans-serif" font-size="40" font-weight="700">92%</text>

  <rect x="895" y="295" width="225" height="120" rx="22" fill="#F5F3FF" stroke="#DDD6FE"/>
  <text x="923" y="326" fill="#64748B" font-family="Arial, sans-serif" font-size="12" font-weight="700" letter-spacing="3">AVG SOURCES/CHAT</text>
  <text x="923" y="382" fill="#0F172A" font-family="Arial, sans-serif" font-size="40" font-weight="700">3.8</text>

  <rect x="160" y="445" width="360" height="230" rx="24" fill="#FFFFFF" stroke="#E2E8F0"/>
  <text x="190" y="480" fill="#64748B" font-family="Arial, sans-serif" font-size="13" font-weight="700" letter-spacing="3">TOP QUERIES</text>

  <text x="190" y="525" fill="#0F172A" font-family="Arial, sans-serif" font-size="14" font-weight="700">Summarize the main argument</text>
  <rect x="190" y="538" width="280" height="10" rx="5" fill="#E2E8F0"/>
  <rect x="190" y="538" width="230" height="10" rx="5" fill="#06B6D4"/>

  <text x="190" y="580" fill="#0F172A" font-family="Arial, sans-serif" font-size="14" font-weight="700">What risks or limitations are mentioned?</text>
  <rect x="190" y="593" width="280" height="10" rx="5" fill="#E2E8F0"/>
  <rect x="190" y="593" width="182" height="10" rx="5" fill="#06B6D4"/>

  <text x="190" y="635" fill="#0F172A" font-family="Arial, sans-serif" font-size="14" font-weight="700">List the key dates and names</text>
  <rect x="190" y="648" width="280" height="10" rx="5" fill="#E2E8F0"/>
  <rect x="190" y="648" width="145" height="10" rx="5" fill="#06B6D4"/>

  <rect x="550" y="445" width="570" height="230" rx="24" fill="#FFFFFF" stroke="#E2E8F0"/>
  <text x="580" y="480" fill="#64748B" font-family="Arial, sans-serif" font-size="13" font-weight="700" letter-spacing="3">RECENT CHATS</text>

  <rect x="580" y="505" width="510" height="36" rx="12" fill="#F8FAFC"/>
  <text x="600" y="527" fill="#94A3B8" font-family="Arial, sans-serif" font-size="11" font-weight="700" letter-spacing="2">QUERY</text>
  <text x="947" y="527" fill="#94A3B8" font-family="Arial, sans-serif" font-size="11" font-weight="700" letter-spacing="2">LATENCY</text>
  <text x="1033" y="527" fill="#94A3B8" font-family="Arial, sans-serif" font-size="11" font-weight="700" letter-spacing="2">SOURCES</text>

  <text x="600" y="574" fill="#0F172A" font-family="Arial, sans-serif" font-size="14" font-weight="700">What does the document say about the main risks?</text>
  <text x="600" y="594" fill="#94A3B8" font-family="Arial, sans-serif" font-size="12">3/16/2026, 6:20 PM</text>
  <text x="952" y="584" fill="#334155" font-family="Arial, sans-serif" font-size="13">842 ms</text>
  <text x="1053" y="584" fill="#334155" font-family="Arial, sans-serif" font-size="13">4</text>

  <line x1="580" y1="612" x2="1090" y2="612" stroke="#E2E8F0"/>

  <text x="600" y="646" fill="#0F172A" font-family="Arial, sans-serif" font-size="14" font-weight="700">Summarize the main argument in this report.</text>
  <text x="600" y="666" fill="#94A3B8" font-family="Arial, sans-serif" font-size="12">3/16/2026, 6:24 PM</text>
  <text x="952" y="656" fill="#334155" font-family="Arial, sans-serif" font-size="13">791 ms</text>
  <text x="1053" y="656" fill="#334155" font-family="Arial, sans-serif" font-size="13">3</text>
</svg>
